<?xml version="1.0" encoding="UTF-8" standalone="no"?>
<!DOCTYPE svg PUBLIC "-//W3C//DTD SVG 1.1//EN" "http://www.w3.org/Graphics/SVG/1.1/DTD/svg11.dtd">
<svg width="100%" height="100%" viewBox="0 0 616 192" version="1.1" xmlns="http://www.w3.org/2000/svg" xmlns:xlink="http://www.w3.org/1999/xlink" xml:space="preserve" xmlns:serif="http://www.serif.com/" style="fill-rule:evenodd;clip-rule:evenodd;stroke-linejoin:round;stroke-miterlimit:1.41421;">
    <g transform="matrix(4.16667,0,0,4.16667,106.771,99.2875)">
        <path d="M0,-1.658L-5.548,-1.658L-3.732,-7.372C-3.622,-7.679 -3.517,-8.021 -3.418,-8.396C-3.319,-8.769 -3.215,-9.132 -3.105,-9.485C-2.994,-9.881 -2.885,-10.288 -2.774,-10.707L-2.708,-10.707C-2.62,-10.288 -2.521,-9.881 -2.411,-9.485C-2.323,-9.132 -2.224,-8.769 -2.114,-8.396C-2.004,-8.021 -1.894,-7.679 -1.783,-7.372L0,-1.658ZM20.375,-0.829C20.375,11.873 10.077,22.171 -2.625,22.171C-15.328,22.171 -25.625,11.873 -25.625,-0.829C-25.625,-13.532 -15.328,-23.829 -2.625,-23.829C10.077,-23.829 20.375,-13.532 20.375,-0.829M-14.135,6.797L-8.257,6.797L-6.902,2.537L1.354,2.537L2.741,6.797L8.884,6.797L0.363,-16.817L-5.648,-16.817L-14.135,6.797ZM-14.418,12.573L9.166,12.573L9.166,8.448L-14.418,8.448L-14.418,12.573Z" style="fill:rgb(39,134,166);"/>
    </g>
    <g transform="matrix(4.16667,0,0,4.16667,247.245,91.3079)">
        <path d="M0,2.047L3.883,2.047L2.687,-1.125C2.323,-2.088 2.052,-2.88 1.875,-3.5C1.729,-2.765 1.523,-2.036 1.258,-1.312L0,2.047ZM-3.305,6.75L1.094,-4.703L2.726,-4.703L7.414,6.75L5.687,6.75L4.351,3.281L-0.437,3.281L-1.695,6.75L-3.305,6.75Z" style="fill:rgb(39,134,166);fill-rule:nonzero;"/>
    </g>
    <g transform="matrix(4.16667,0,0,4.16667,286.466,71.7129)">
        <path d="M0,11.453L0,0L1.406,0L1.406,6.531L4.734,3.156L6.555,3.156L3.383,6.234L6.875,11.453L5.141,11.453L2.398,7.211L1.406,8.164L1.406,11.453L0,11.453Z" style="fill:rgb(39,134,166);fill-rule:nonzero;"/>
    </g>
    <g transform="matrix(4.16667,0,0,4.16667,336.56,78.4804)">
        <path d="M0,8.571L0.203,9.813C-0.193,9.896 -0.547,9.938 -0.859,9.938C-1.37,9.938 -1.766,9.857 -2.047,9.696C-2.328,9.535 -2.526,9.322 -2.641,9.059C-2.755,8.796 -2.813,8.243 -2.813,7.399L-2.813,2.626L-3.844,2.626L-3.844,1.532L-2.813,1.532L-2.813,-0.523L-1.414,-1.367L-1.414,1.532L0,1.532L0,2.626L-1.414,2.626L-1.414,7.477C-1.414,7.879 -1.39,8.136 -1.34,8.251C-1.29,8.365 -1.21,8.457 -1.098,8.524C-0.986,8.592 -0.826,8.626 -0.617,8.626C-0.461,8.626 -0.255,8.608 0,8.571" style="fill:rgb(39,134,166);fill-rule:nonzero;"/>
    </g>
    <g transform="matrix(4.16667,0,0,4.16667,368.945,85.6421)">
        <path d="M0,8.11L0,6.891C-0.646,7.829 -1.523,8.297 -2.633,8.297C-3.123,8.297 -3.58,8.204 -4.004,8.016C-4.429,7.829 -4.744,7.593 -4.949,7.309C-5.155,7.025 -5.3,6.678 -5.383,6.266C-5.441,5.99 -5.469,5.553 -5.469,4.954L-5.469,-0.187L-4.062,-0.187L-4.062,4.415C-4.062,5.149 -4.034,5.644 -3.977,5.899C-3.888,6.269 -3.701,6.559 -3.414,6.77C-3.128,6.981 -2.773,7.087 -2.352,7.087C-1.93,7.087 -1.534,6.979 -1.164,6.762C-0.794,6.546 -0.533,6.252 -0.379,5.88C-0.226,5.507 -0.148,4.967 -0.148,4.258L-0.148,-0.187L1.258,-0.187L1.258,8.11L0,8.11Z" style="fill:rgb(39,134,166);fill-rule:nonzero;"/>
    </g>
    <g transform="matrix(4.16667,0,0,4.16667,398.044,111.1)">
        <path d="M0,-7.328L1.039,-9.516L2.883,-9.516L1.164,-7.328L0,-7.328ZM2.734,-2.164C2.224,-1.955 1.458,-1.778 0.438,-1.633C-0.141,-1.549 -0.55,-1.455 -0.789,-1.351C-1.028,-1.247 -1.214,-1.095 -1.344,-0.894C-1.474,-0.694 -1.539,-0.471 -1.539,-0.226C-1.539,0.149 -1.397,0.461 -1.113,0.711C-0.829,0.961 -0.414,1.086 0.133,1.086C0.675,1.086 1.156,0.968 1.578,0.731C2,0.494 2.31,0.17 2.508,-0.242C2.659,-0.559 2.734,-1.028 2.734,-1.648L2.734,-2.164ZM2.852,0.977C2.331,1.42 1.829,1.732 1.348,1.914C0.866,2.096 0.349,2.188 -0.203,2.188C-1.114,2.188 -1.815,1.965 -2.305,1.52C-2.794,1.074 -3.039,0.505 -3.039,-0.187C-3.039,-0.594 -2.946,-0.965 -2.762,-1.301C-2.577,-1.637 -2.335,-1.906 -2.035,-2.109C-1.735,-2.312 -1.398,-2.466 -1.023,-2.57C-0.747,-2.643 -0.331,-2.713 0.227,-2.781C1.362,-2.916 2.198,-3.078 2.734,-3.266C2.739,-3.458 2.742,-3.58 2.742,-3.633C2.742,-4.205 2.609,-4.609 2.344,-4.844C1.984,-5.161 1.45,-5.32 0.742,-5.32C0.081,-5.32 -0.407,-5.204 -0.723,-4.973C-1.038,-4.741 -1.27,-4.33 -1.422,-3.742L-2.797,-3.93C-2.672,-4.518 -2.466,-4.993 -2.18,-5.355C-1.893,-5.717 -1.479,-5.996 -0.937,-6.191C-0.395,-6.387 0.232,-6.484 0.945,-6.484C1.653,-6.484 2.23,-6.401 2.672,-6.234C3.114,-6.067 3.441,-5.858 3.649,-5.605C3.857,-5.352 4.003,-5.034 4.086,-4.648C4.133,-4.409 4.156,-3.976 4.156,-3.351L4.156,-1.476C4.156,-0.169 4.187,0.658 4.246,1.004C4.306,1.351 4.425,1.683 4.602,2L3.133,2C2.987,1.709 2.894,1.367 2.852,0.977" style="fill:rgb(39,134,166);fill-rule:nonzero;"/>
    </g>
    <g transform="matrix(4.16667,0,0,4.16667,-525.616,-1799.92)">
        <rect x="228.943" y="449.192" width="1.406" height="11.453" style="fill:rgb(39,134,166);"/>
    </g>
    <g transform="matrix(4.16667,0,0,4.16667,447.255,84.0838)">
        <path d="M0,8.484L0,0.187L1.266,0.187L1.266,1.367C1.875,0.456 2.755,0 3.906,0C4.406,0 4.866,0.089 5.285,0.269C5.704,0.449 6.018,0.685 6.227,0.976C6.435,1.268 6.581,1.614 6.664,2.015C6.716,2.276 6.742,2.731 6.742,3.382L6.742,8.484L5.336,8.484L5.336,3.437C5.336,2.864 5.281,2.436 5.172,2.152C5.062,1.868 4.868,1.642 4.59,1.472C4.311,1.303 3.984,1.218 3.609,1.218C3.011,1.218 2.493,1.409 2.059,1.789C1.624,2.169 1.406,2.89 1.406,3.953L1.406,8.484L0,8.484Z" style="fill:rgb(39,134,166);fill-rule:nonzero;"/>
    </g>
    <g transform="matrix(4.16667,0,0,4.16667,492.759,92.8408)">
        <path d="M0,1.437L4.633,1.437C4.57,0.739 4.393,0.216 4.102,-0.133C3.653,-0.675 3.073,-0.946 2.359,-0.946C1.714,-0.946 1.171,-0.73 0.73,-0.297C0.29,0.135 0.047,0.713 0,1.437M2.438,-3.805L3.297,-5.133L4.891,-5.133L3.133,-2.946L1.633,-2.946L-0.055,-5.133L1.555,-5.133L2.438,-3.805ZM4.617,3.71L6.07,3.89C5.841,4.739 5.417,5.398 4.797,5.867C4.177,6.335 3.386,6.57 2.422,6.57C1.208,6.57 0.246,6.196 -0.465,5.449C-1.176,4.702 -1.531,3.653 -1.531,2.304C-1.531,0.909 -1.172,-0.175 -0.453,-0.946C0.266,-1.716 1.198,-2.102 2.344,-2.102C3.453,-2.102 4.359,-1.724 5.062,-0.969C5.766,-0.214 6.117,0.849 6.117,2.218C6.117,2.302 6.114,2.427 6.109,2.593L-0.078,2.593C-0.026,3.505 0.231,4.203 0.695,4.687C1.159,5.171 1.737,5.414 2.43,5.414C2.945,5.414 3.386,5.278 3.75,5.007C4.114,4.737 4.403,4.304 4.617,3.71" style="fill:rgb(39,134,166);fill-rule:nonzero;"/>
    </g>
    <g transform="matrix(4.16667,0,0,4.16667,-525.616,-1758.87)">
        <rect x="253.284" y="449.191" width="1.602" height="1.602" style="fill:rgb(39,134,166);"/>
    </g>
    <g transform="matrix(4.16667,0,0,4.16667,573.154,97.5292)">
        <path d="M0,2.218L1.383,2.398C1.231,3.351 0.845,4.097 0.223,4.636C-0.399,5.175 -1.164,5.445 -2.07,5.445C-3.206,5.445 -4.118,5.073 -4.809,4.331C-5.499,3.589 -5.844,2.526 -5.844,1.14C-5.844,0.244 -5.695,-0.54 -5.398,-1.212C-5.102,-1.884 -4.649,-2.387 -4.043,-2.723C-3.437,-3.059 -2.776,-3.227 -2.063,-3.227C-1.161,-3.227 -0.425,-2.999 0.148,-2.544C0.722,-2.088 1.089,-1.441 1.25,-0.602L-0.117,-0.391C-0.247,-0.949 -0.478,-1.368 -0.809,-1.649C-1.14,-1.93 -1.539,-2.071 -2.008,-2.071C-2.716,-2.071 -3.292,-1.817 -3.734,-1.309C-4.177,-0.802 -4.398,0.002 -4.398,1.101C-4.398,2.216 -4.185,3.026 -3.758,3.53C-3.331,4.036 -2.773,4.288 -2.086,4.288C-1.534,4.288 -1.073,4.119 -0.703,3.78C-0.333,3.442 -0.099,2.921 0,2.218" style="fill:rgb(39,134,166);fill-rule:nonzero;"/>
    </g>
    <g transform="matrix(4.16667,0,0,4.16667,584.836,84.8629)">
        <path d="M0,8.297L0,7.156L5.281,1.094C4.683,1.125 4.153,1.141 3.695,1.141L0.312,1.141L0.312,0L7.094,0L7.094,0.93L2.602,6.195L1.734,7.156C2.364,7.11 2.956,7.086 3.508,7.086L7.344,7.086L7.344,8.297L0,8.297Z" style="fill:rgb(39,134,166);fill-rule:nonzero;"/>
    </g>
</svg>
