<?xml version="1.0" encoding="utf-8"?>
<!-- Generator: Adobe Illustrator 23.0.3, SVG Export Plug-In . SVG Version: 6.00 Build 0)  -->
<svg version="1.1" id="Vrstva_1" xmlns="http://www.w3.org/2000/svg" xmlns:xlink="http://www.w3.org/1999/xlink" x="0px" y="0px"
	 viewBox="0 0 229.667 70.666" style="enable-background:new 0 0 229.667 70.666;" xml:space="preserve">
<style type="text/css">
	.st0{fill:url(#SVGID_1_);}
	.st1{fill:#FFFFFF;}
</style>
<linearGradient id="SVGID_1_" gradientUnits="userSpaceOnUse" x1="0" y1="35.3332" x2="229.667" y2="35.3332">
	<stop  offset="0" style="stop-color:#E71E25"/>
	<stop  offset="1" style="stop-color:#EC1E24"/>
</linearGradient>
<rect class="st0" width="229.667" height="70.666"/>
<g>
	<path class="st1" d="M36.323,47.074l1.244-7.843h0.866c2.543,0,4.436,1.136,4.002,3.894c-0.432,2.76-2.758,3.949-5.192,3.949
		H36.323z M23.883,55.891h14.82c9.846,0,13.902-6.6,14.714-11.631c0.866-5.463-1.46-8.817-6.815-9.249v-0.109
		c4.651,0,8.223-3.569,8.926-8.167c1.406-8.817-5.734-11.629-12.225-11.629H30.32L23.883,55.891z M38.866,30.955l1.136-7.033h1.082
		c2.272,0,3.787,1.028,3.353,3.462c-0.379,2.65-2.65,3.571-4.922,3.571H38.866z"/>
	<path class="st1" d="M52.619,55.896l5.775-36.599h9.902l-4.416,27.96h7.426l-1.359,8.639H52.619z"/>
	<path class="st1" d="M77.248,19.297h18.397l-1.359,8.64h-8.495l-0.775,5.097h7.621l-1.408,8.642h-7.621l-0.874,5.582h8.495
		l-1.359,8.639H71.473L77.248,19.297z"/>
	<path class="st1" d="M93.159,43.568c1.068,2.039,3.106,4.078,5.631,4.078c1.358,0,3.058-0.826,3.3-2.428
		c0.147-0.873-0.048-1.505-0.484-2.039c-0.34-0.534-0.824-0.972-1.408-1.408c-1.698-1.504-3.155-2.912-4.175-4.658
		c-0.922-1.699-1.407-3.739-0.971-6.408c0.679-4.271,4.612-12.039,13.058-12.039c2.379,0,4.854,0.729,6.747,1.845l-1.748,11.116
		c-0.872-1.845-2.911-3.933-5.193-3.933c-1.164,0-2.718,0.825-2.912,2.233c-0.146,0.777,0.194,1.456,0.632,2.04
		c0.436,0.582,1.116,1.067,1.553,1.504c1.844,1.456,3.301,2.815,4.174,4.466c0.875,1.65,1.215,3.592,0.777,6.358
		c-1.068,6.796-6.699,12.233-13.591,12.233c-2.525,0-5.001-0.535-7.186-1.506L93.159,43.568z"/>
	<path class="st1" d="M128.398,55.896l-3.495-16.795h0.05h-0.098l-2.67,16.795h-9.902l5.776-36.599h9.903l-2.428,15.581h-0.049
		h0.049l-0.146,0.098l0.048-0.098h0.146l7.864-15.581h10.436l-10.68,17.669l5.825,18.93H128.398z"/>
</g>
<path class="st1" d="M178.227,55.689l1.166-7.978l12.883-19.168h-9.479l1.333-8.941h21.471l-1.161,8.031l-12.566,19.063h10.762
	l-1.33,8.994H178.227z"/>
<path class="st1" d="M152.818,51.31c0,2.639-2.139,4.777-4.777,4.777c-2.639,0-4.777-2.139-4.777-4.777
	c0-2.64,2.139-4.778,4.777-4.778C150.68,46.532,152.818,48.67,152.818,51.31z"/>
<path class="st1" d="M176.205,45.933l-0.008-0.042c-1.461,0.749-3.573,1.392-4.911,1.392c-1.874,0-3.196-0.751-3.356-4.069
	c-0.061-1.232,0.025-2.783,0.354-4.819c1.237-8.729,3.501-10.603,6.501-10.603c1.435,0,3.054,0.581,4.1,1.165l1.38-8.738
	c-1.986-0.924-4.434-1.369-6.934-1.369c-8.781,0-14.039,6.372-15.723,17.992c-0.482,3.319-0.67,6.051-0.553,8.46
	c0.4,8.247,4.289,11.137,11.25,11.137c2.387,0,4.458-0.422,6.422-1.137L176.205,45.933z"/>
</svg>
