<?xml version="1.0" encoding="UTF-8" standalone="no"?>
<!DOCTYPE svg PUBLIC "-//W3C//DTD SVG 1.1//EN" "http://www.w3.org/Graphics/SVG/1.1/DTD/svg11.dtd">
<svg width="100%" height="100%" viewBox="0 0 560 56" version="1.1" xmlns="http://www.w3.org/2000/svg" xmlns:xlink="http://www.w3.org/1999/xlink" xml:space="preserve" xmlns:serif="http://www.serif.com/" style="fill-rule:evenodd;clip-rule:evenodd;stroke-linejoin:round;stroke-miterlimit:1.41421;">
    <g transform="matrix(1,0,0,1,-4,-4.6)">
        <path d="M26.4,35.5L4,35.5L4,12.1C4,8.1 6,5.3 10.9,5.3L30.6,5.3C34.1,5.3 36.4,7.4 36.4,11.4L36.4,21.7L26.4,21.7L26.4,14.1L13.6,14.1L13.6,26.5L36.4,26.5L36.4,52.2C36.4,56.3 34,58.8 29.3,58.8L10.9,58.8C6.2,59 4,56.3 4,52.7L4,40.4L13.6,40.4L13.6,50.1L26.4,50.1L26.4,35.5Z" style="fill:rgb(152,25,20);fill-rule:nonzero;"/>
    </g>
    <g transform="matrix(1,0,0,1,-4,-4.6)">
        <path d="M139.5,59L139.5,40.6L129.3,40.6L129.3,50.1L117.1,50.1L117.1,35.5L134,35.5L134,26.7L117.1,26.7L117.1,14.2L129.3,14.2L129.3,21.8L139.5,21.8L139.5,5.4L103,5.4L103,14.2L107.7,14.2L107.7,50.1L103,50.1L103,59L139.5,59Z" style="fill:rgb(152,25,20);fill-rule:nonzero;"/>
    </g>
    <g transform="matrix(1,0,0,1,-4,-4.6)">
        <path d="M218.3,59L218.3,40.6L208.1,40.6L208.1,50.1L195.9,50.1L195.9,35.5L212.7,35.5L212.7,26.7L195.9,26.7L195.9,14.2L208.1,14.2L208.1,21.8L218.3,21.8L218.3,5.4L181.8,5.4L181.8,14.2L186.5,14.2L186.5,50.1L181.8,50.1L181.8,59L218.3,59Z" style="fill:rgb(152,25,20);fill-rule:nonzero;"/>
    </g>
    <g transform="matrix(1,0,0,1,-4,-4.6)">
        <path d="M242.5,14.2L242.5,5.4L224.6,5.4L224.6,14.2L229.3,14.2L229.3,50.1L224.6,50.1L224.6,59L261.1,59L261.1,40.6L250.9,40.6L250.9,50.1L238.7,50.1L238.7,14.2L242.5,14.2Z" style="fill:rgb(152,25,20);fill-rule:nonzero;"/>
    </g>
    <g transform="matrix(1,0,0,1,-4,-4.6)">
        <path d="M99.1,59L80.5,59L80.5,50.1L84.7,50.1L84.7,14.2L80.5,14.2L80.5,5.4L99.1,5.4L99.1,14.2L94.4,14.2L94.4,50.1L99.1,50.1L99.1,59Z" style="fill:rgb(152,25,20);fill-rule:nonzero;"/>
    </g>
    <g transform="matrix(1,0,0,1,-4,-4.6)">
        <path d="M166.9,35.5L158.1,35.5L158.1,26.6L176.4,26.6L176.4,58.9L149.8,58.9C146,58.9 144.4,55.9 144.4,53.5L144.4,11.1C144.4,8.3 145.9,5.3 150.2,5.3L170.8,5.3C173.2,5.3 176.5,7 176.5,11L176.5,21.8L167,21.8L167,14.2L154.4,14.2L154.4,50.1L167,50.1L167,35.5L166.9,35.5Z" style="fill:rgb(152,25,20);fill-rule:nonzero;"/>
    </g>
    <g transform="matrix(1,0,0,1,-4,-4.6)">
        <path d="M41.5,5.4L41.5,14.3L45.8,14.3L45.8,50.2L41.5,50.2L41.5,59L60,59L60,50.1L55.5,50.1L55.5,35.5L71.1,35.5C75.1,35.5 78.2,33 78.2,29.5L78.2,11.8C78.2,7 75,5.4 71.8,5.4L41.5,5.4ZM55.5,14.2L68.1,14.2L68.1,26.6L55.5,26.6L55.5,14.2Z" style="fill:rgb(152,25,20);fill-rule:nonzero;"/>
    </g>
    <g transform="matrix(1,0,0,1,-4,-4.6)">
        <path d="M301.9,59.7C283.4,59.7 276.4,45.8 276.4,32.6C276.4,16.2 286.5,4.6 302.6,4.6C318.8,4.6 328.8,15.2 328.8,31.4C328.8,46.2 319.8,59.7 301.9,59.7ZM302.7,8C292.7,8 285,16.2 285,32C285,48.9 292.5,56.4 301.9,56.4C315.4,56.4 320.299,45.1 320.299,31.3C320.2,19 315.2,8 302.7,8Z" style="fill:rgb(152,25,20);fill-rule:nonzero;"/>
    </g>
    <g transform="matrix(1,0,0,1,-4,-4.6)">
        <path d="M381.3,8.5C378,8.5 377.401,8.9 377.401,12.4L377.401,59.8L374.1,59.8L340.1,14.6L339.9,14.6L339.9,52.1C339.9,55.6 340.4,56 343.799,56L346.499,56L346.499,59C343.699,58.8 340.799,58.7 337.999,58.7C335.199,58.7 332.299,58.9 329.499,59L329.499,56L332.199,56C335.499,56 336.098,55.6 336.098,52.1L336.098,12.4C336.098,8.9 335.598,8.5 332.199,8.5L329.499,8.5L329.499,5.5C331.799,5.7 334.099,5.8 336.499,5.8C338.899,5.8 341.199,5.6 343.499,5.5C343.899,6.5 344.599,7.9 345.499,8.9L373.499,46L373.699,46L373.699,12.4C373.699,8.9 373.199,8.5 369.799,8.5L367.099,8.5L367.099,5.5C369.999,5.7 372.799,5.8 375.599,5.8C378.4,5.8 381.2,5.6 384.099,5.5L384.099,8.5L381.3,8.5Z" style="fill:rgb(152,25,20);fill-rule:nonzero;"/>
    </g>
    <g transform="matrix(1,0,0,1,-4,-4.6)">
        <path d="M428.9,59C421.099,58.8 413.299,58.7 405.5,58.7C399.8,58.7 394.2,58.9 388.5,59L388.5,56L391.2,56C394.5,56 395.099,55.6 395.099,52.1L395.099,12.4C395.099,8.9 394.599,8.5 391.2,8.5L388.5,8.5L388.5,5.5C391.9,5.7 395.4,5.8 398.8,5.8C402.2,5.8 405.7,5.6 409.1,5.5L409.1,8.5L406.4,8.5C403.099,8.5 402.5,8.9 402.5,12.4L402.5,55.1L417,55.1C423.5,55.1 424.8,54.2 426.4,49.9L428.299,44.5L431.499,44.5L428.9,59Z" style="fill:rgb(152,25,20);fill-rule:nonzero;"/>
    </g>
    <g transform="matrix(1,0,0,1,-4,-4.6)">
        <path d="M445.4,58.7C442,58.7 438.5,58.9 435.099,59L435.099,56L437.799,56C441.099,56 441.699,55.6 441.699,52L441.699,12.4C441.699,8.9 441.199,8.5 437.799,8.5L435.099,8.5L435.099,5.5C438.499,5.7 441.999,5.8 445.4,5.8C448.799,5.8 452.299,5.6 455.7,5.5L455.7,8.5L453,8.5C449.7,8.5 449.1,8.9 449.1,12.4L449.1,52C449.1,55.6 449.6,56 453,56L455.7,56L455.7,59C452.3,58.8 448.8,58.7 445.4,58.7Z" style="fill:rgb(152,25,20);fill-rule:nonzero;"/>
    </g>
    <g transform="matrix(1,0,0,1,-4,-4.6)">
        <path d="M513.7,8.5C510.4,8.5 509.8,8.9 509.8,12.4L509.8,59.8L506.5,59.8L472.5,14.6L472.3,14.6L472.3,52.1C472.3,55.6 472.8,56 476.2,56L478.9,56L478.9,59C476.099,58.8 473.2,58.7 470.4,58.7C467.599,58.7 464.7,58.9 461.9,59L461.9,56L464.599,56C467.9,56 468.499,55.6 468.499,52.1L468.499,12.4C468.499,8.9 467.999,8.5 464.599,8.5L461.9,8.5L461.9,5.5C464.2,5.7 466.5,5.8 468.9,5.8C471.299,5.8 473.599,5.6 475.9,5.5C476.299,6.5 477,7.9 477.9,8.9L505.9,46L506.099,46L506.099,12.4C506.099,8.9 505.599,8.5 502.2,8.5L499.5,8.5L499.5,5.5C502.4,5.7 505.2,5.8 508,5.8C510.8,5.8 513.6,5.6 516.5,5.5L516.5,8.5L513.7,8.5Z" style="fill:rgb(152,25,20);fill-rule:nonzero;"/>
    </g>
    <g transform="matrix(1,0,0,1,-4,-4.6)">
        <path d="M561.2,59C550.9,58.8 540.5,58.7 533.4,58.7C527.299,58.7 523.5,58.9 520.9,59L520.9,56L523.599,56C526.9,56 527.499,55.6 527.499,52.1L527.499,12.4C527.499,8.9 526.999,8.5 523.599,8.5L520.9,8.5L520.9,5.5L526.599,5.7C528.299,5.8 529.9,5.8 531.7,5.8L548.8,5.8C552.7,5.8 556.3,5.6 559.8,5.5L560.401,18.1L557.201,18.1C556.001,10.2 554.801,9.4 548.301,9.4L535,9.4L535,28.9L541.9,28.9C551.4,28.9 552.099,28.7 552.099,24.6L552.099,23.1L555.099,23.1L555.099,39.7L552.099,39.7L552.099,38.9C552.099,33 550.9,32.6 544.499,32.6L535,32.6L535,55L551,55C556.5,55 557.5,54.6 560.7,46L564,46L561.2,59Z" style="fill:rgb(152,25,20);fill-rule:nonzero;"/>
    </g>
</svg>
