<svg class="g_eB" viewBox="0 0 120 24" version="1.1" xmlns="http://www.w3.org/2000/svg"><g id="Common/Logo-Novinky" stroke="none" stroke-width="1" fill="none" fill-rule="evenodd"><path d="M119,6.41851447 L119,7.05421649 C118.542636,7.80100846 118.016167,8.61467732 117.422448,9.49633769 C116.829102,10.3787411 116.22721,11.2563146 115.616401,12.1294296 C115.005592,13.0032876 114.412245,13.8336757 113.835618,14.6224515 C113.25899,15.4108558 112.7589,16.0766524 112.335346,16.6194699 L118.822405,16.6194699 L118.822405,19.366624 L107.400203,19.366624 L107.400203,18.7305504 C108.01064,17.9510631 108.650058,17.1113866 109.320684,16.2126354 C109.989825,15.3135128 110.630728,14.4277655 111.241537,13.5539074 C111.851975,12.6807924 112.411511,11.8622935 112.920147,11.0991539 C113.428783,10.3360142 113.844535,9.6913953 114.166287,9.16604015 L107.833045,9.16604015 L107.833045,6.41851447 L119,6.41851447" id="Fill-12" fill="#343534"></path><path d="M106.637063,19.0615911 C106.38256,19.163021 106.089787,19.2566487 105.759118,19.3409879 C105.428821,19.4256986 105.089606,19.4940616 104.741846,19.5449624 C104.394087,19.5954916 104.042611,19.637847 103.687049,19.6720285 C103.330001,19.7058385 102.999703,19.7229292 102.694299,19.7229292 C101.710466,19.7229292 100.824347,19.6122108 100.035942,19.3922601 C99.2475382,19.1719379 98.5731962,18.7989135 98.013288,18.2728153 C97.4537513,17.7474601 97.0249961,17.0389366 96.7288801,16.1487308 C96.432021,15.2581535 96.2837772,14.1517125 96.2837772,12.8290362 C96.2837772,11.5059883 96.432021,10.4084642 96.7288801,9.53460614 C97.0249961,8.66111961 97.4537513,7.966343 98.013288,7.44841862 C98.5731962,6.93160885 99.2475382,6.56712979 100.035942,6.35498142 C100.824347,6.1432046 101.710466,6.03694464 102.694299,6.03694464 C102.999703,6.03694464 103.333716,6.05403541 103.69931,6.08784539 C104.063046,6.12165537 104.424181,6.16401074 104.779743,6.21491149 C105.136792,6.26618377 105.475263,6.32934528 105.797758,6.40588217 C106.119882,6.48204752 106.39965,6.56267133 106.637063,6.64738206 L105.925196,9.34363546 C105.517618,9.19130476 105.047251,9.06015174 104.512979,8.94943333 C103.979078,8.83945799 103.448893,8.78409879 102.923167,8.78409879 C102.346539,8.78409879 101.846077,8.83128415 101.422152,8.92416872 C100.998227,9.01742483 100.646751,9.20839552 100.366983,9.49633769 C100.087215,9.78502295 99.8795248,10.1959443 99.7431703,10.7305879 C99.6071872,11.2644884 99.5391957,11.9811858 99.5391957,12.8799369 C99.5391957,13.7448781 99.6071872,14.4444847 99.7431703,14.9783852 C99.8795248,15.5130288 100.087215,15.9287802 100.366983,16.2252677 C100.646751,16.5221268 100.998227,16.7208998 101.422152,16.8230728 C101.846077,16.9248743 102.346539,16.9757751 102.923167,16.9757751 C103.465612,16.9757751 103.999884,16.916329 104.525983,16.7974367 C105.051709,16.678916 105.517618,16.5347591 105.925196,16.3649661 L106.637063,19.0615911" id="Fill-11" fill="#343534"></path><path d="M91.9598145,15.7288926 C92.3495582,15.7288926 92.6757688,15.7504418 92.9391895,15.7927972 C93.2018671,15.8351525 93.409557,15.9198632 93.5622592,16.0469293 C93.7145899,16.174367 93.8249368,16.3523338 93.8929283,16.5812014 C93.9601767,16.810069 93.9943582,17.1195604 93.9943582,17.5096756 C93.9943582,17.9336008 93.9601767,18.2728153 93.8929283,18.527319 C93.8249368,18.7818227 93.7145899,18.9809672 93.5622592,19.1251241 C93.409557,19.269281 93.2018671,19.366624 92.9391895,19.4178963 C92.6757688,19.4684255 92.3495582,19.4940616 91.9598145,19.4940616 C91.5856755,19.4940616 91.2765556,19.4684255 91.0313403,19.4178963 C90.7850105,19.366624 90.5854944,19.269281 90.4335352,19.1251241 C90.2812045,18.9809672 90.169743,18.7818227 90.1024946,18.527319 C90.0341316,18.2728153 90.0014362,17.9336008 90.0014362,17.5096756 C90.0014362,17.1195604 90.0341316,16.810069 90.1024946,16.5812014 C90.169743,16.3523338 90.2812045,16.174367 90.4335352,16.0469293 C90.5854944,15.9198632 90.7850105,15.8351525 91.0313403,15.7927972 C91.2765556,15.7504418 91.5856755,15.7288926 91.9598145,15.7288926" id="Fill-10" fill="#343534"></path><path d="M90.0014362,6.41851447 C89.5589341,7.89389303 89.0807643,9.39899466 88.563583,10.9338194 C88.0456586,12.4690156 87.4946673,13.9993818 86.9102376,15.5256611 C86.3243217,17.0519404 85.7101689,18.5529551 85.0651784,20.0279622 C84.4205595,21.5033407 83.7592213,22.9110993 83.081907,24.2508664 L79.5712417,24.2508664 C79.9097131,23.640429 80.2660183,22.9575416 80.6394143,22.2029473 C81.0120672,21.4483531 81.359827,20.715308 81.6823223,20.0026976 C81.359827,18.8498142 81.0165256,17.6753817 80.6520466,16.4793999 C80.287196,15.2837897 79.9097131,14.1008118 79.5203409,12.9308377 C79.1294827,11.7608636 78.7319367,10.6246995 78.3243592,9.52197384 C77.9171532,8.41961972 77.5103188,7.38525711 77.1034843,6.41851447 L80.384539,6.41851447 C80.9611664,7.86008305 81.5299916,9.43726311 82.0895282,11.1500546 C82.6490649,12.8632177 83.1484124,14.5585469 83.5905429,16.2379 C84.2009804,14.6098192 84.7857816,12.9687346 85.3449468,11.3153892 C85.9044834,9.66204377 86.3885978,8.02987605 86.7950607,6.41851447 L90.0014362,6.41851447" id="Fill-9" fill="#343534"></path><path d="M74.0509257,19.366624 C72.5751756,17.2299073 71.3929408,15.5936526 70.5023635,14.457117 C69.6121577,13.3213244 68.9883449,12.6763339 68.6327828,12.5236317 L68.6327828,19.366624 L65.4776796,19.366624 L65.4776796,1 L68.6327828,1 L68.6327828,12.5236317 C68.9883449,12.2356895 69.595067,11.5784383 70.4510912,10.5522495 C71.3078585,9.52606076 72.3719442,8.14839677 73.6437198,6.41851447 L77.3832527,6.41851447 C76.1278248,8.11458678 75.0722845,9.44989541 74.2155172,10.4251834 C73.359493,11.4004714 72.7616878,12.0239127 72.4232165,12.2947641 C72.7616878,12.4983671 73.3933029,13.1853414 74.3176902,14.355687 C75.2420775,15.5256611 76.391617,17.1960973 77.7648225,19.366624 L74.0509257,19.366624" id="Fill-8" fill="#343534"></path><path d="M54.4377908,19.366624 L51.2834306,19.366624 L51.2834306,7.15601798 C51.6728028,7.00368728 52.1190203,6.85953043 52.6191108,6.72354741 C53.1192013,6.58830747 53.6371257,6.46904368 54.1702832,6.36761373 C54.7052983,6.26618377 55.2514596,6.18555996 55.8113678,6.12611383 C56.3709045,6.06629617 56.9055481,6.03694464 57.4145556,6.03694464 C58.3296544,6.03694464 59.1188017,6.13874614 59.7797683,6.34197758 C60.4411065,6.54558057 60.9883824,6.88070811 61.4204814,7.34698867 C61.8533236,7.81364076 62.1709888,8.43671048 62.3749633,9.21656936 C62.5781948,9.99679978 62.6796247,10.9720878 62.6796247,12.1420619 L62.6796247,19.366624 L59.5260077,19.366624 L59.5260077,12.4731025 C59.5260077,11.7608636 59.4873677,11.1716039 59.4108308,10.7049518 C59.3354085,10.2386712 59.1905086,9.86973368 58.9791033,9.59851072 C58.7662119,9.32691623 58.4827282,9.14040401 58.127166,9.03823098 C57.7701177,8.93680102 57.3123825,8.88627182 56.7524743,8.88627182 C55.9722439,8.88627182 55.2009304,8.98770177 54.4377908,9.19130476 L54.4377908,19.366624" id="Fill-7" fill="#8C2326"></path><path d="M45.2544788,19.366624 L45.2544788,6.41851447 L48.4088389,6.41851447 L48.4088389,19.366624 L45.2544788,19.366624 Z M46.8576665,1.02563614 C47.1965094,1.02563614 47.4799931,1.04235537 47.7096038,1.07653689 C47.9384714,1.11034687 48.1246121,1.1824253 48.2687689,1.29240064 C48.4129258,1.40311905 48.5143557,1.55953667 48.5745449,1.76313965 C48.633248,1.9663711 48.6633426,2.23833713 48.6633426,2.57718006 C48.6633426,3.32360049 48.531818,3.80251335 48.2687689,4.01466171 C48.0053483,4.22681008 47.5349808,4.33232695 46.8576665,4.33232695 C46.1617753,4.33232695 45.6821193,4.22681008 45.4198133,4.01466171 C45.1563926,3.80251335 45.0259827,3.32360049 45.0259827,2.57718006 C45.0259827,2.23833713 45.0545912,1.9663711 45.1147804,1.76313965 C45.1734834,1.55953667 45.2756564,1.40311905 45.4198133,1.29240064 C45.5635986,1.1824253 45.7501108,1.11034687 45.97935,1.07653689 C46.2082176,1.04235537 46.5006182,1.02563614 46.8576665,1.02563614 Z" id="Fill-6" fill="#8C2326"></path><path d="M37.6234537,16.1869993 C38.2342627,14.5585469 38.8146055,12.9308377 39.3655968,11.3027569 C39.9165881,9.67467607 40.4044179,8.04659527 40.8287146,6.41851447 L44.0339755,6.41851447 C43.4064473,8.53851197 42.6893784,10.6964064 41.8846264,12.8925692 C41.0783883,15.0891036 40.2435418,17.246998 39.3789722,19.366624 L35.4863655,19.366624 C34.8417465,17.0942958 34.1592307,14.8557776 33.4384464,12.6506978 C32.7176621,10.4467326 31.9508071,8.36871897 31.1360236,6.41851447 L34.4181929,6.41851447 C34.9948203,7.87717381 35.5580724,9.44989541 36.1101783,11.1374223 C36.6604265,12.8249493 37.165347,14.5080177 37.6234537,16.1869993" id="Fill-5" fill="#343534"></path><path d="M24.2681382,19.7229292 C23.2337756,19.7229292 22.3301945,19.6122108 21.558881,19.3922601 C20.7875675,19.1719379 20.146664,18.7989135 19.638028,18.2728153 C19.1297637,17.7474601 18.7474507,17.0389366 18.4933186,16.1487308 C18.2388148,15.2581535 18.1121203,14.1517125 18.1121203,12.8290362 C18.1121203,11.5059883 18.2388148,10.4084642 18.4933186,9.53460614 C18.7474507,8.66111961 19.1331075,7.966343 19.6510319,7.44841862 C20.1678416,6.93160885 20.812089,6.56712979 21.5841456,6.35498142 C22.3554591,6.1432046 23.2504949,6.03694464 24.2681382,6.03694464 C25.3021293,6.03694464 26.2094258,6.1432046 26.9900278,6.35498142 C27.7695151,6.56712979 28.4185925,6.93160885 28.9357738,7.44841862 C29.4536982,7.966343 29.839355,8.66111961 30.0934872,9.53460614 C30.3479909,10.4084642 30.4746854,11.5059883 30.4746854,12.8290362 C30.4746854,14.1517125 30.3479909,15.2581535 30.0934872,16.1487308 C29.839355,17.0389366 29.4536982,17.7474601 28.9357738,18.2728153 C28.4185925,18.7989135 27.7695151,19.1719379 26.9900278,19.3922601 C26.2094258,19.6122108 25.3021293,19.7229292 24.2681382,19.7229292 Z M24.2681382,8.58086734 C23.70823,8.58086734 23.2464079,8.63139655 22.8819289,8.73356958 C22.5174498,8.83537107 22.2205907,9.03823098 21.9917231,9.34363546 C21.7628555,9.64903993 21.6004933,10.0815105 21.5079803,10.6410472 C21.4150957,11.2005838 21.3679103,11.9473758 21.3679103,12.8799369 C21.3679103,13.7786881 21.4150957,14.5080177 21.5079803,15.0679259 C21.6004933,15.6270911 21.7628555,16.0640201 21.9917231,16.3775984 C22.2205907,16.6915483 22.5174498,16.9033251 22.8819289,17.013672 C23.2464079,17.1240189 23.70823,17.1790065 24.2681382,17.1790065 C24.8276749,17.1790065 25.2980424,17.1240189 25.6803553,17.013672 C26.0619251,16.9033251 26.3665865,16.6915483 26.5950826,16.3775984 C26.8250648,16.0640201 26.9855693,15.6270911 27.0788254,15.0679259 C27.17171,14.5080177 27.2188954,13.7786881 27.2188954,12.8799369 C27.2188954,11.9473758 27.17171,11.2005838 27.0788254,10.6410472 C26.9855693,10.0815105 26.8250648,9.64903993 26.5950826,9.34363546 C26.3665865,9.03823098 26.0619251,8.83537107 25.6803553,8.73356958 C25.2980424,8.63139655 24.8276749,8.58086734 24.2681382,8.58086734 Z" id="Fill-4" fill="#343534"></path><path d="M15.1866277,19.366624 L11.0911611,19.366624 C9.88700553,17.1451965 8.63157763,14.9193106 7.32673515,12.6889662 C6.02040651,10.4589934 4.67209404,8.23347903 3.28105467,6.0113085 L3.28105467,19.366624 L0,19.366624 L0,1.63607356 L4.40049955,1.63607356 C5.68973743,3.67136033 6.96188454,5.76980861 8.21731244,7.93178994 C9.47162571,10.0941428 10.6843267,12.2609541 11.8546723,14.4314808 L11.8546723,1.63607356 L15.1866277,1.63607356 L15.1866277,19.366624" id="Fill-3" fill="#343534"></path></g></svg>
